# xmcd
#
# Track frame offsets: 
#        150
#        15170
#        29567
#        42111
#        59498
#        73287
#        88536
#        98802
#        115834
#        137394
#        153748
#        178281
#        194307
#        206565
#        224064
#        240602
#        257235
#        277699
#        298280
#        314756
#        327595
#
# Disc length: 4575 seconds
#
# Revision: 5
# Processed by: cddbd v1.5.2PL0 Copyright (c) Steve Scherf et al.
# Submitted via: ExactAudioCopyFreeDBPlugin 1.0
#
DISCID=4911dd15
DTITLE=Willie Nelson - One Hell Of A Ride Disc 4
DYEAR=2008
DGENRE=Country
TTITLE0=Write Your Own Songs
TTITLE1=Heart Of Gold
TTITLE2=I'm Movin' On (with Hank Snow)
TTITLE3=Seven Spanish Angels (With Ray Charles)
TTITLE4=Highwayman (With Waylon Jennings, Johnny Cash And Kris Kristof
TTITLE4=ferson)
TTITLE5=Living In The Promiseland
TTITLE6=What A Wonderful World
TTITLE7=Country Willie
TTITLE8=Graceland
TTITLE9=Valentine
TTITLE10=What Was It You Wanted
TTITLE11=Still Is Still Moving To Me
TTITLE12=Too Sick To Pray
TTITLE13=Everywhere I Go
TTITLE14=My Own Peculiar Way
TTITLE15=Nuages
TTITLE16=Rainbow Connection
TTITLE17=Mendocino County Line (With Lee Ann Womack)
TTITLE18=The Harder They Come
TTITLE19=Bubbles In My Beer
TTITLE20=When I've Sung My Last Hillbilly Song
EXTD=
EXTT0=
EXTT1=
EXTT2=
EXTT3=
EXTT4=
EXTT5=
EXTT6=
EXTT7=
EXTT8=
EXTT9=
EXTT10=
EXTT11=
EXTT12=
EXTT13=
EXTT14=
EXTT15=
EXTT16=
EXTT17=
EXTT18=
EXTT19=
EXTT20=
PLAYORDER=
